<?xml version="1.0" standalone="no"?>
<!DOCTYPE svg PUBLIC "-//W3C//DTD SVG 20010904//EN"
 "http://www.w3.org/TR/2001/REC-SVG-20010904/DTD/svg10.dtd">
<svg version="1.0" xmlns="http://www.w3.org/2000/svg"
 width="256.000000pt" height="256.000000pt" viewBox="0 0 256.000000 256.000000"
 preserveAspectRatio="xMidYMid meet">

<g transform="translate(0.000000,256.000000) scale(0.100000,-0.100000)"
fill="#000000" stroke="none">
<path d="M263 2540 c-67 -40 -63 34 -63 -1162 0 -1208 -3 -1155 69 -1258 21
-30 57 -70 80 -87 l43 -33 918 0 c662 0 926 3 944 11 29 14 51 59 41 88 -3 11
-27 48 -52 82 -83 113 -77 71 -83 663 l-5 529 -38 -56 -37 -57 0 -458 c0 -526
-1 -515 85 -642 l54 -80 -906 0 -907 0 -42 45 c-86 93 -79 -20 -82 1224 -2
815 1 1107 9 1117 16 19 1758 21 1777 2 8 -8 12 -58 12 -160 l0 -148 40 0 40
0 0 153 c0 133 -2 156 -20 184 -40 66 13 63 -962 63 -858 0 -884 -1 -915 -20z"/>
<path d="M432 2348 c-17 -17 -17 -279 0 -296 17 -17 1479 -17 1496 0 17 17 17
279 0 296 -17 17 -1479 17 -1496 0z m1428 -148 l0 -80 -680 0 -680 0 0 80 0
80 680 0 680 0 0 -80z"/>
<path d="M2063 2064 c-25 -13 -112 -137 -404 -576 -204 -309 -376 -575 -380
-592 -12 -43 -39 -334 -32 -351 12 -33 44 -24 190 54 82 44 158 91 169 103 30
34 720 1079 740 1121 35 74 -3 139 -129 215 -67 40 -111 48 -154 26z m133
-105 c35 -22 68 -47 74 -54 8 -10 -76 -144 -355 -564 l-365 -551 -88 61 c-48
33 -86 64 -85 68 1 5 162 250 358 545 286 431 360 536 377 536 12 0 50 -18 84
-41z m-761 -1181 l74 -52 -29 -18 c-30 -18 -147 -78 -152 -78 -2 0 1 45 6 100
5 55 13 100 18 100 4 0 42 -23 83 -52z m155 28 c0 -2 -8 -10 -17 -17 -16 -13
-17 -12 -4 4 13 16 21 21 21 13z"/>
<path d="M432 1868 c-17 -17 -17 -519 0 -536 9 -9 86 -12 284 -12 234 0 275 2
288 16 24 23 24 505 0 528 -13 14 -54 16 -288 16 -198 0 -275 -3 -284 -12z
m508 -268 l0 -200 -220 0 -220 0 0 200 0 200 220 0 220 0 0 -200z"/>
<path d="M1196 1864 c-9 -8 -16 -19 -16 -24 0 -5 7 -16 16 -24 13 -14 54 -16
293 -16 l278 0 27 40 26 40 -304 0 c-264 0 -307 -2 -320 -16z"/>
<path d="M1196 1704 c-9 -8 -16 -19 -16 -24 0 -5 7 -16 16 -24 13 -14 49 -16
239 -16 l224 0 19 28 c10 15 22 33 26 40 6 9 -46 12 -243 12 -214 0 -252 -2
-265 -16z"/>
<path d="M1196 1544 c-9 -8 -16 -19 -16 -24 0 -5 7 -16 16 -24 13 -13 44 -16
187 -16 l172 0 23 35 c12 19 22 37 22 40 0 3 -87 5 -194 5 -164 0 -197 -3
-210 -16z"/>
<path d="M1196 1384 c-9 -8 -16 -19 -16 -24 0 -5 7 -16 16 -24 12 -13 40 -16
134 -16 129 0 124 -2 164 68 6 9 -25 12 -138 12 -118 0 -147 -3 -160 -16z"/>
<path d="M432 1148 c-7 -7 -12 -19 -12 -28 0 -39 13 -40 376 -40 307 0 355 2
368 16 20 19 20 29 0 48 -13 14 -61 16 -368 16 -260 0 -355 -3 -364 -12z"/>
<path d="M1898 987 l-38 -57 0 -125 0 -125 -80 0 -81 0 -38 -40 -38 -40 147 0
c113 0 150 3 159 14 8 9 11 77 9 221 l-3 208 -37 -56z"/>
<path d="M432 988 c-7 -7 -12 -19 -12 -28 0 -39 13 -40 376 -40 307 0 355 2
368 16 20 19 20 29 0 48 -13 14 -61 16 -368 16 -260 0 -355 -3 -364 -12z"/>
<path d="M432 828 c-7 -7 -12 -19 -12 -28 0 -39 13 -40 376 -40 307 0 355 2
368 16 20 19 20 29 0 48 -13 14 -61 16 -368 16 -260 0 -355 -3 -364 -12z"/>
<path d="M432 668 c-16 -16 -15 -43 2 -57 9 -8 114 -11 367 -9 l354 3 9 28 c8
22 7 30 -4 37 -23 15 -713 13 -728 -2z"/>
<path d="M432 428 c-16 -16 -15 -43 2 -57 9 -8 213 -10 746 -9 685 3 734 4
744 20 8 13 8 23 0 35 -10 17 -59 18 -746 21 -562 2 -737 -1 -746 -10z"/>
<path d="M432 268 c-16 -16 -15 -43 2 -57 9 -8 213 -10 746 -9 685 3 734 4
744 20 8 13 8 23 0 35 -10 17 -59 18 -746 21 -562 2 -737 -1 -746 -10z"/>
</g>
</svg>
