<?xml version="1.0" encoding="UTF-8"?>
<svg version="1.1" xmlns="http://www.w3.org/2000/svg" 
     width="24" height="24" viewBox="0 0 24 24">
    <path fill="#000000" 
          d="M14,2H6C4.9,2 4,2.9 4,4v16c0,1.1 0.9,2 2,2h12c1.1,0 2,-0.9 2,-2V8L14,2z M16,20H8v-2h8V20z M16,16H8v-2h8V16z M13,9V3.5L18.5,9H13z M12,13c-1.1,0 -2,-0.9 -2,-2s0.9,-2 2,-2s2,0.9 2,2S13.1,13 12,13z M15,11.5c0,-1.5 -2.5,-2.5 -3,-2.5s-3,1 -3,2.5 M10.5,10c0.28,0 0.5,-0.22 0.5,-0.5S10.78,9 10.5,9S10,9.22 10,9.5S10.22,10 10.5,10z M13.5,10c0.28,0 0.5,-0.22 0.5,-0.5S13.78,9 13.5,9S13,9.22 13,9.5S13.22,10 13.5,10z"/>
</svg>