<?xml version="1.0" standalone="no"?>
<!DOCTYPE svg PUBLIC "-//W3C//DTD SVG 20010904//EN"
 "http://www.w3.org/TR/2001/REC-SVG-20010904/DTD/svg10.dtd">
<svg version="1.0" xmlns="http://www.w3.org/2000/svg"
 width="360.000000pt" height="360.000000pt" viewBox="0 0 360.000000 360.000000"
 preserveAspectRatio="xMidYMid meet">

<g transform="translate(0.000000,360.000000) scale(0.100000,-0.100000)"
fill="#000000" stroke="none">
<path d="M1074 3585 c-16 -9 -37 -28 -46 -43 -10 -17 -31 -129 -54 -293 l-38
-266 -135 -16 c-161 -20 -217 -43 -300 -122 -66 -63 -106 -130 -121 -201 -14
-69 -110 -942 -110 -1001 0 -61 22 -147 56 -221 23 -49 113 -144 677 -709 712
-714 691 -695 823 -709 78 -8 174 16 239 61 64 44 1184 1167 1214 1218 75 124
63 293 -27 410 -23 29 -317 327 -654 663 -592 590 -616 613 -688 647 -139 65
-186 68 -500 32 -118 -14 -218 -25 -221 -25 -3 0 9 104 28 232 19 128 32 246
29 263 -14 71 -105 114 -172 80z m751 -675 c57 -21 87 -50 699 -659 683 -681
686 -684 686 -781 0 -104 -4 -108 -628 -731 -386 -385 -590 -582 -617 -595
-57 -26 -157 -25 -210 3 -23 13 -301 284 -671 655 -580 582 -633 638 -657 694
-15 34 -30 88 -33 120 -3 39 14 224 50 541 51 457 55 484 82 533 53 97 121
136 272 154 59 8 110 12 113 10 3 -2 1 -30 -4 -62 l-9 -58 -95 -11 c-99 -10
-128 -23 -166 -76 -17 -22 -28 -97 -74 -499 -29 -260 -52 -494 -49 -520 10
-97 23 -111 673 -759 340 -340 629 -620 641 -624 13 -4 40 -4 60 0 32 5 110
80 614 583 605 606 599 599 583 670 -4 20 -191 213 -638 659 l-632 632 -60 17
c-59 17 -66 16 -330 -13 -148 -16 -272 -28 -274 -27 -2 2 1 29 5 61 l9 58 225
27 c256 31 347 30 435 -2z m-961 -417 c-20 -133 -18 -166 12 -202 37 -44 91
-58 137 -36 52 24 67 55 83 169 20 135 21 137 45 106 63 -79 81 -181 47 -261
-36 -83 -127 -142 -218 -142 -217 1 -322 252 -170 404 72 72 80 68 64 -38z
m990 -940 l112 -532 -61 -61 -61 -60 -125 590 -125 589 61 61 60 60 13 -57 c7
-32 64 -297 126 -590z m413 282 c62 -31 127 -100 155 -162 28 -64 22 -162 -15
-219 -51 -82 -123 -124 -209 -124 -137 1 -268 135 -268 275 0 70 17 112 70
169 81 87 172 108 267 61z m-800 -87 c24 -12 62 -42 85 -66 104 -113 108 -254
10 -355 -131 -136 -320 -97 -416 87 -71 134 9 307 164 357 37 12 107 2 157
-23z"/>
<path d="M2114 1710 c-31 -12 -54 -49 -54 -86 0 -68 116 -173 174 -158 43 10
76 52 76 94 0 29 -9 47 -42 85 -39 44 -90 76 -120 74 -7 0 -23 -4 -34 -9z"/>
<path d="M1284 1606 c-19 -19 -34 -44 -34 -56 0 -62 86 -156 154 -167 30 -5
40 -1 66 25 55 55 33 129 -58 199 -56 42 -85 42 -128 -1z"/>
</g>
</svg>
