<?xml version="1.0" standalone="no"?>
<!DOCTYPE svg PUBLIC "-//W3C//DTD SVG 20010904//EN"
 "http://www.w3.org/TR/2001/REC-SVG-20010904/DTD/svg10.dtd">
<svg version="1.0" xmlns="http://www.w3.org/2000/svg"
 width="305.000000pt" height="286.000000pt" viewBox="0 0 305.000000 286.000000"
 preserveAspectRatio="xMidYMid meet">

<g transform="translate(0.000000,286.000000) scale(0.100000,-0.100000)"
fill="#000000" stroke="none">
<path d="M12 2848 c-17 -17 -17 -2619 0 -2636 9 -9 272 -12 1123 -12 l1111 0
49 -50 c104 -106 201 -145 344 -138 70 3 98 10 151 35 120 57 194 142 232 266
26 88 22 208 -10 281 l-22 49 0 1096 c0 840 -3 1100 -12 1109 -17 17 -2949 17
-2966 0z m2928 -1078 l0 -1040 21 0 c16 0 6 -11 -38 -44 -126 -95 -227 -225
-303 -391 -21 -47 -44 -85 -49 -85 -6 0 -19 17 -30 38 -24 47 -89 131 -148
193 l-44 46 36 31 c20 18 42 32 50 32 8 0 38 -25 68 -55 l54 -55 54 72 c83
111 165 171 293 212 18 6 18 8 -5 32 -39 41 -121 83 -200 100 -93 22 -190 9
-280 -37 -188 -95 -283 -324 -214 -520 8 -23 15 -43 15 -45 0 -2 -488 -4
-1085 -4 l-1085 0 0 1280 0 1280 1445 0 1445 0 0 -1040z m-268 -971 c54 -11
148 -56 148 -70 0 -5 -8 -13 -18 -18 -14 -7 -34 -4 -78 14 -157 65 -338 -3
-410 -153 -36 -75 -39 -182 -7 -254 96 -213 374 -258 529 -85 76 85 99 222 54
323 -21 48 -21 48 -1 68 l20 20 20 -45 c84 -189 6 -406 -177 -496 -50 -25 -68
-28 -152 -28 -85 0 -102 3 -154 29 -224 110 -282 400 -115 581 52 56 115 94
183 111 66 16 93 16 158 3z"/>
<path d="M629 2462 c-212 -110 -136 -425 102 -425 173 0 279 176 200 331 -57
110 -191 152 -302 94z m181 -44 c103 -52 131 -181 58 -264 -41 -47 -82 -66
-138 -66 -81 0 -149 53 -170 133 -21 78 18 161 92 198 55 27 102 27 158 -1z"/>
<path d="M1276 2294 c-21 -21 -20 -47 2 -67 17 -15 71 -17 574 -17 525 0 556
1 571 18 20 22 22 53 5 70 -9 9 -150 12 -574 12 -498 0 -564 -2 -578 -16z"/>
<path d="M659 1876 c-82 -29 -130 -84 -150 -172 -35 -153 113 -300 265 -265
67 16 121 54 154 110 36 61 37 155 4 218 -50 96 -173 145 -273 109z m174 -72
c127 -84 81 -290 -72 -318 -111 -20 -226 92 -206 201 24 132 166 192 278 117z"/>
<path d="M1277 1692 c-22 -24 -21 -38 3 -62 20 -20 33 -20 574 -20 491 0 556
2 570 16 19 18 21 55 4 72 -9 9 -150 12 -573 12 -532 0 -563 -1 -578 -18z"/>
<path d="M659 1276 c-82 -29 -130 -84 -150 -172 -10 -41 -9 -60 4 -105 64
-219 379 -215 438 5 46 170 -127 331 -292 272z m172 -70 c103 -69 101 -223 -5
-293 -131 -87 -308 42 -267 194 13 46 72 109 115 123 46 14 115 3 157 -24z"/>
<path d="M1642 1100 c-335 -5 -354 -6 -368 -24 -17 -24 -17 -31 -4 -57 10 -18
24 -19 268 -19 491 0 872 12 888 27 18 19 18 48 -2 67 -17 17 -26 17 -782 6z"/>
</g>
</svg>
