<svg xmlns="http://www.w3.org/2000/svg" xmlns:xlink="http://www.w3.org/1999/xlink" width="1920" zoomAndPan="magnify" viewBox="0 0 1440 809.999993" height="1080" preserveAspectRatio="xMidYMid meet" version="1.2"><defs/><g id="ddf210302e"><g style="fill:#ff00ff;fill-opacity:1;"><g transform="translate(297.083809, 551.647971)"><path style="stroke:none" d="M 187.546875 0 L 40.265625 0 C 35.410156 0 31.894531 -1.082031 29.71875 -3.25 C 27.550781 -5.425781 26.46875 -8.945312 26.46875 -13.8125 L 26.46875 -262.328125 C 26.46875 -267.191406 27.550781 -270.707031 29.71875 -272.875 C 31.894531 -275.050781 35.410156 -276.140625 40.265625 -276.140625 L 162.625 -276.140625 C 187.675781 -276.140625 206.207031 -271.34375 218.21875 -261.75 C 230.238281 -252.164062 236.25 -237.40625 236.25 -217.46875 L 236.25 -199.046875 C 236.25 -188.304688 234.394531 -179.550781 230.6875 -172.78125 C 226.988281 -166.007812 221.300781 -160.957031 213.625 -157.625 C 229.988281 -156.09375 242.132812 -150.46875 250.0625 -140.75 C 257.988281 -131.039062 261.953125 -116.851562 261.953125 -98.1875 L 261.953125 -62.90625 C 261.953125 -41.425781 255.878906 -25.570312 243.734375 -15.34375 C 231.585938 -5.113281 212.859375 0 187.546875 0 Z M 112.765625 -210.9375 L 112.765625 -169.515625 L 145.359375 -169.515625 C 150.210938 -169.515625 153.851562 -170.789062 156.28125 -173.34375 C 158.71875 -175.90625 159.9375 -179.742188 159.9375 -184.859375 L 159.9375 -195.59375 C 159.9375 -200.707031 158.71875 -204.539062 156.28125 -207.09375 C 153.851562 -209.65625 150.210938 -210.9375 145.359375 -210.9375 Z M 112.765625 -110.453125 L 112.765625 -65.203125 L 162.625 -65.203125 C 167.476562 -65.203125 171.117188 -66.476562 173.546875 -69.03125 C 175.972656 -71.59375 177.1875 -75.429688 177.1875 -80.546875 L 177.1875 -95.5 C 177.1875 -100.613281 175.972656 -104.382812 173.546875 -106.8125 C 171.117188 -109.238281 167.476562 -110.453125 162.625 -110.453125 Z M 112.765625 -110.453125 "/></g></g><g style="fill:#ff00ff;fill-opacity:1;"><g transform="translate(575.14256, 551.647971)"><path style="stroke:none" d="M 126.5625 -195.59375 L 108.546875 -137.296875 L 168.75 -137.296875 L 150.734375 -195.59375 C 149.703125 -197.894531 148.609375 -199.554688 147.453125 -200.578125 C 146.304688 -201.609375 144.96875 -202.125 143.4375 -202.125 L 133.859375 -202.125 C 132.316406 -202.125 130.96875 -201.609375 129.8125 -200.578125 C 128.664062 -199.554688 127.582031 -197.894531 126.5625 -195.59375 Z M 104.703125 -13.8125 C 104.703125 -8.945312 103.613281 -5.425781 101.4375 -3.25 C 99.269531 -1.082031 95.753906 0 90.890625 0 L 34.515625 0 C 29.660156 0 26.144531 -1.082031 23.96875 -3.25 C 21.789062 -5.425781 20.703125 -8.945312 20.703125 -13.8125 L 20.703125 -115.0625 C 20.703125 -122.726562 21.914062 -131.546875 24.34375 -141.515625 C 26.78125 -151.492188 30.554688 -163.128906 35.671875 -176.421875 L 69.03125 -263.484375 C 70.570312 -267.828125 72.9375 -271.019531 76.125 -273.0625 C 79.320312 -275.113281 83.476562 -276.140625 88.59375 -276.140625 L 191.765625 -276.140625 C 196.617188 -276.140625 200.644531 -275.113281 203.84375 -273.0625 C 207.039062 -271.019531 209.40625 -267.828125 210.9375 -263.484375 L 244.3125 -176.421875 C 249.425781 -163.128906 253.195312 -151.492188 255.625 -141.515625 C 258.050781 -131.546875 259.265625 -122.726562 259.265625 -115.0625 L 259.265625 -13.8125 C 259.265625 -8.945312 258.175781 -5.425781 256 -3.25 C 253.832031 -1.082031 250.316406 0 245.453125 0 L 187.546875 0 C 182.429688 0 178.660156 -1.082031 176.234375 -3.25 C 173.804688 -5.425781 172.59375 -8.945312 172.59375 -13.8125 L 172.59375 -67.5 L 104.703125 -67.5 Z M 104.703125 -13.8125 "/></g></g><g style="fill:#ff00ff;fill-opacity:1;"><g transform="translate(855.118941, 551.647971)"><path style="stroke:none" d="M 235.484375 0 L 40.265625 0 C 35.410156 0 31.894531 -1.082031 29.71875 -3.25 C 27.550781 -5.425781 26.46875 -8.945312 26.46875 -13.8125 L 26.46875 -262.328125 C 26.46875 -267.191406 27.550781 -270.707031 29.71875 -272.875 C 31.894531 -275.050781 35.410156 -276.140625 40.265625 -276.140625 L 99.71875 -276.140625 C 104.570312 -276.140625 108.085938 -275.050781 110.265625 -272.875 C 112.441406 -270.707031 113.53125 -267.191406 113.53125 -262.328125 L 113.53125 -72.484375 L 166.0625 -72.484375 L 166.0625 -134.625 C 166.0625 -139.476562 167.148438 -142.988281 169.328125 -145.15625 C 171.503906 -147.332031 175.019531 -148.421875 179.875 -148.421875 L 235.484375 -148.421875 C 240.347656 -148.421875 243.863281 -147.332031 246.03125 -145.15625 C 248.207031 -142.988281 249.296875 -139.476562 249.296875 -134.625 L 249.296875 -13.8125 C 249.296875 -8.945312 248.207031 -5.425781 246.03125 -3.25 C 243.863281 -1.082031 240.347656 0 235.484375 0 Z M 235.484375 0 "/></g></g><g style="fill:#00ffff;fill-opacity:1;"><g transform="translate(317.069141, 533.01135)"><path style="stroke:none" d="M 187.546875 0 L 40.265625 0 C 35.410156 0 31.894531 -1.082031 29.71875 -3.25 C 27.550781 -5.425781 26.46875 -8.945312 26.46875 -13.8125 L 26.46875 -262.328125 C 26.46875 -267.191406 27.550781 -270.707031 29.71875 -272.875 C 31.894531 -275.050781 35.410156 -276.140625 40.265625 -276.140625 L 162.625 -276.140625 C 187.675781 -276.140625 206.207031 -271.34375 218.21875 -261.75 C 230.238281 -252.164062 236.25 -237.40625 236.25 -217.46875 L 236.25 -199.046875 C 236.25 -188.304688 234.394531 -179.550781 230.6875 -172.78125 C 226.988281 -166.007812 221.300781 -160.957031 213.625 -157.625 C 229.988281 -156.09375 242.132812 -150.46875 250.0625 -140.75 C 257.988281 -131.039062 261.953125 -116.851562 261.953125 -98.1875 L 261.953125 -62.90625 C 261.953125 -41.425781 255.878906 -25.570312 243.734375 -15.34375 C 231.585938 -5.113281 212.859375 0 187.546875 0 Z M 112.765625 -210.9375 L 112.765625 -169.515625 L 145.359375 -169.515625 C 150.210938 -169.515625 153.851562 -170.789062 156.28125 -173.34375 C 158.71875 -175.90625 159.9375 -179.742188 159.9375 -184.859375 L 159.9375 -195.59375 C 159.9375 -200.707031 158.71875 -204.539062 156.28125 -207.09375 C 153.851562 -209.65625 150.210938 -210.9375 145.359375 -210.9375 Z M 112.765625 -110.453125 L 112.765625 -65.203125 L 162.625 -65.203125 C 167.476562 -65.203125 171.117188 -66.476562 173.546875 -69.03125 C 175.972656 -71.59375 177.1875 -75.429688 177.1875 -80.546875 L 177.1875 -95.5 C 177.1875 -100.613281 175.972656 -104.382812 173.546875 -106.8125 C 171.117188 -109.238281 167.476562 -110.453125 162.625 -110.453125 Z M 112.765625 -110.453125 "/></g></g><g style="fill:#00ffff;fill-opacity:1;"><g transform="translate(595.127892, 533.01135)"><path style="stroke:none" d="M 126.5625 -195.59375 L 108.546875 -137.296875 L 168.75 -137.296875 L 150.734375 -195.59375 C 149.703125 -197.894531 148.609375 -199.554688 147.453125 -200.578125 C 146.304688 -201.609375 144.96875 -202.125 143.4375 -202.125 L 133.859375 -202.125 C 132.316406 -202.125 130.96875 -201.609375 129.8125 -200.578125 C 128.664062 -199.554688 127.582031 -197.894531 126.5625 -195.59375 Z M 104.703125 -13.8125 C 104.703125 -8.945312 103.613281 -5.425781 101.4375 -3.25 C 99.269531 -1.082031 95.753906 0 90.890625 0 L 34.515625 0 C 29.660156 0 26.144531 -1.082031 23.96875 -3.25 C 21.789062 -5.425781 20.703125 -8.945312 20.703125 -13.8125 L 20.703125 -115.0625 C 20.703125 -122.726562 21.914062 -131.546875 24.34375 -141.515625 C 26.78125 -151.492188 30.554688 -163.128906 35.671875 -176.421875 L 69.03125 -263.484375 C 70.570312 -267.828125 72.9375 -271.019531 76.125 -273.0625 C 79.320312 -275.113281 83.476562 -276.140625 88.59375 -276.140625 L 191.765625 -276.140625 C 196.617188 -276.140625 200.644531 -275.113281 203.84375 -273.0625 C 207.039062 -271.019531 209.40625 -267.828125 210.9375 -263.484375 L 244.3125 -176.421875 C 249.425781 -163.128906 253.195312 -151.492188 255.625 -141.515625 C 258.050781 -131.546875 259.265625 -122.726562 259.265625 -115.0625 L 259.265625 -13.8125 C 259.265625 -8.945312 258.175781 -5.425781 256 -3.25 C 253.832031 -1.082031 250.316406 0 245.453125 0 L 187.546875 0 C 182.429688 0 178.660156 -1.082031 176.234375 -3.25 C 173.804688 -5.425781 172.59375 -8.945312 172.59375 -13.8125 L 172.59375 -67.5 L 104.703125 -67.5 Z M 104.703125 -13.8125 "/></g></g><g style="fill:#00ffff;fill-opacity:1;"><g transform="translate(875.104273, 533.01135)"><path style="stroke:none" d="M 235.484375 0 L 40.265625 0 C 35.410156 0 31.894531 -1.082031 29.71875 -3.25 C 27.550781 -5.425781 26.46875 -8.945312 26.46875 -13.8125 L 26.46875 -262.328125 C 26.46875 -267.191406 27.550781 -270.707031 29.71875 -272.875 C 31.894531 -275.050781 35.410156 -276.140625 40.265625 -276.140625 L 99.71875 -276.140625 C 104.570312 -276.140625 108.085938 -275.050781 110.265625 -272.875 C 112.441406 -270.707031 113.53125 -267.191406 113.53125 -262.328125 L 113.53125 -72.484375 L 166.0625 -72.484375 L 166.0625 -134.625 C 166.0625 -139.476562 167.148438 -142.988281 169.328125 -145.15625 C 171.503906 -147.332031 175.019531 -148.421875 179.875 -148.421875 L 235.484375 -148.421875 C 240.347656 -148.421875 243.863281 -147.332031 246.03125 -145.15625 C 248.207031 -142.988281 249.296875 -139.476562 249.296875 -134.625 L 249.296875 -13.8125 C 249.296875 -8.945312 248.207031 -5.425781 246.03125 -3.25 C 243.863281 -1.082031 240.347656 0 235.484375 0 Z M 235.484375 0 "/></g></g><g style="fill:#7843e6;fill-opacity:1;"><g transform="translate(307.076475, 542.329661)"><path style="stroke:none" d="M 187.546875 0 L 40.265625 0 C 35.410156 0 31.894531 -1.082031 29.71875 -3.25 C 27.550781 -5.425781 26.46875 -8.945312 26.46875 -13.8125 L 26.46875 -262.328125 C 26.46875 -267.191406 27.550781 -270.707031 29.71875 -272.875 C 31.894531 -275.050781 35.410156 -276.140625 40.265625 -276.140625 L 162.625 -276.140625 C 187.675781 -276.140625 206.207031 -271.34375 218.21875 -261.75 C 230.238281 -252.164062 236.25 -237.40625 236.25 -217.46875 L 236.25 -199.046875 C 236.25 -188.304688 234.394531 -179.550781 230.6875 -172.78125 C 226.988281 -166.007812 221.300781 -160.957031 213.625 -157.625 C 229.988281 -156.09375 242.132812 -150.46875 250.0625 -140.75 C 257.988281 -131.039062 261.953125 -116.851562 261.953125 -98.1875 L 261.953125 -62.90625 C 261.953125 -41.425781 255.878906 -25.570312 243.734375 -15.34375 C 231.585938 -5.113281 212.859375 0 187.546875 0 Z M 112.765625 -210.9375 L 112.765625 -169.515625 L 145.359375 -169.515625 C 150.210938 -169.515625 153.851562 -170.789062 156.28125 -173.34375 C 158.71875 -175.90625 159.9375 -179.742188 159.9375 -184.859375 L 159.9375 -195.59375 C 159.9375 -200.707031 158.71875 -204.539062 156.28125 -207.09375 C 153.851562 -209.65625 150.210938 -210.9375 145.359375 -210.9375 Z M 112.765625 -110.453125 L 112.765625 -65.203125 L 162.625 -65.203125 C 167.476562 -65.203125 171.117188 -66.476562 173.546875 -69.03125 C 175.972656 -71.59375 177.1875 -75.429688 177.1875 -80.546875 L 177.1875 -95.5 C 177.1875 -100.613281 175.972656 -104.382812 173.546875 -106.8125 C 171.117188 -109.238281 167.476562 -110.453125 162.625 -110.453125 Z M 112.765625 -110.453125 "/></g></g><g style="fill:#7843e6;fill-opacity:1;"><g transform="translate(585.135226, 542.329661)"><path style="stroke:none" d="M 126.5625 -195.59375 L 108.546875 -137.296875 L 168.75 -137.296875 L 150.734375 -195.59375 C 149.703125 -197.894531 148.609375 -199.554688 147.453125 -200.578125 C 146.304688 -201.609375 144.96875 -202.125 143.4375 -202.125 L 133.859375 -202.125 C 132.316406 -202.125 130.96875 -201.609375 129.8125 -200.578125 C 128.664062 -199.554688 127.582031 -197.894531 126.5625 -195.59375 Z M 104.703125 -13.8125 C 104.703125 -8.945312 103.613281 -5.425781 101.4375 -3.25 C 99.269531 -1.082031 95.753906 0 90.890625 0 L 34.515625 0 C 29.660156 0 26.144531 -1.082031 23.96875 -3.25 C 21.789062 -5.425781 20.703125 -8.945312 20.703125 -13.8125 L 20.703125 -115.0625 C 20.703125 -122.726562 21.914062 -131.546875 24.34375 -141.515625 C 26.78125 -151.492188 30.554688 -163.128906 35.671875 -176.421875 L 69.03125 -263.484375 C 70.570312 -267.828125 72.9375 -271.019531 76.125 -273.0625 C 79.320312 -275.113281 83.476562 -276.140625 88.59375 -276.140625 L 191.765625 -276.140625 C 196.617188 -276.140625 200.644531 -275.113281 203.84375 -273.0625 C 207.039062 -271.019531 209.40625 -267.828125 210.9375 -263.484375 L 244.3125 -176.421875 C 249.425781 -163.128906 253.195312 -151.492188 255.625 -141.515625 C 258.050781 -131.546875 259.265625 -122.726562 259.265625 -115.0625 L 259.265625 -13.8125 C 259.265625 -8.945312 258.175781 -5.425781 256 -3.25 C 253.832031 -1.082031 250.316406 0 245.453125 0 L 187.546875 0 C 182.429688 0 178.660156 -1.082031 176.234375 -3.25 C 173.804688 -5.425781 172.59375 -8.945312 172.59375 -13.8125 L 172.59375 -67.5 L 104.703125 -67.5 Z M 104.703125 -13.8125 "/></g></g><g style="fill:#7843e6;fill-opacity:1;"><g transform="translate(865.111607, 542.329661)"><path style="stroke:none" d="M 235.484375 0 L 40.265625 0 C 35.410156 0 31.894531 -1.082031 29.71875 -3.25 C 27.550781 -5.425781 26.46875 -8.945312 26.46875 -13.8125 L 26.46875 -262.328125 C 26.46875 -267.191406 27.550781 -270.707031 29.71875 -272.875 C 31.894531 -275.050781 35.410156 -276.140625 40.265625 -276.140625 L 99.71875 -276.140625 C 104.570312 -276.140625 108.085938 -275.050781 110.265625 -272.875 C 112.441406 -270.707031 113.53125 -267.191406 113.53125 -262.328125 L 113.53125 -72.484375 L 166.0625 -72.484375 L 166.0625 -134.625 C 166.0625 -139.476562 167.148438 -142.988281 169.328125 -145.15625 C 171.503906 -147.332031 175.019531 -148.421875 179.875 -148.421875 L 235.484375 -148.421875 C 240.347656 -148.421875 243.863281 -147.332031 246.03125 -145.15625 C 248.207031 -142.988281 249.296875 -139.476562 249.296875 -134.625 L 249.296875 -13.8125 C 249.296875 -8.945312 248.207031 -5.425781 246.03125 -3.25 C 243.863281 -1.082031 240.347656 0 235.484375 0 Z M 235.484375 0 "/></g></g></g></svg>