<svg xmlns="http://www.w3.org/2000/svg" xmlns:xlink="http://www.w3.org/1999/xlink" width="1920" zoomAndPan="magnify" viewBox="0 0 1440 809.999993" height="1080" preserveAspectRatio="xMidYMid meet" version="1.2"><defs><clipPath id="c40fd3c12c"><path d="M 414.523438 404.558594 L 660.59375 404.558594 L 660.59375 615.949219 L 414.523438 615.949219 Z M 414.523438 404.558594 "/></clipPath><clipPath id="28c9345d7b"><path d="M 660.503906 510.253906 L 599.011719 615.949219 L 476.019531 615.949219 L 414.523438 510.253906 L 476.019531 404.558594 L 599.011719 404.558594 Z M 660.503906 510.253906 "/></clipPath><clipPath id="1b0d4a5fcd"><path d="M 414.523438 404.558594 L 660.5 404.558594 L 660.5 615.945312 L 414.523438 615.945312 Z M 414.523438 404.558594 "/></clipPath><clipPath id="68ad5e9745"><path d="M 660.5 510.25 L 599.007812 615.945312 L 476.019531 615.945312 L 414.523438 510.25 L 476.019531 404.558594 L 599.007812 404.558594 Z M 660.5 510.25 "/></clipPath><clipPath id="874bd607bd"><path d="M 778.277344 193.160156 L 1024.347656 193.160156 L 1024.347656 404.550781 L 778.277344 404.550781 Z M 778.277344 193.160156 "/></clipPath><clipPath id="dc8f840c25"><path d="M 778.367188 298.855469 L 839.859375 193.160156 L 962.851562 193.160156 L 1024.347656 298.855469 L 962.851562 404.550781 L 839.859375 404.550781 Z M 778.367188 298.855469 "/></clipPath><clipPath id="bceaf7fdb4"><path d="M 778.371094 193.164062 L 1024.347656 193.164062 L 1024.347656 404.550781 L 778.371094 404.550781 Z M 778.371094 193.164062 "/></clipPath><clipPath id="0577fdcae2"><path d="M 778.371094 298.855469 L 839.863281 193.164062 L 962.851562 193.164062 L 1024.347656 298.855469 L 962.851562 404.550781 L 839.863281 404.550781 Z M 778.371094 298.855469 "/></clipPath><clipPath id="173fe55a47"><path d="M 595.167969 298.863281 L 841.238281 298.863281 L 841.238281 510.253906 L 595.167969 510.253906 Z M 595.167969 298.863281 "/></clipPath><clipPath id="8ea1fde701"><path d="M 841.148438 404.558594 L 779.652344 510.253906 L 656.660156 510.253906 L 595.167969 404.558594 L 656.660156 298.863281 L 779.652344 298.863281 Z M 841.148438 404.558594 "/></clipPath><clipPath id="b8bf49b913"><path d="M 595.167969 298.863281 L 841.140625 298.863281 L 841.140625 510.25 L 595.167969 510.25 Z M 595.167969 298.863281 "/></clipPath><clipPath id="b885d9c6cb"><path d="M 841.140625 404.554688 L 779.648438 510.25 L 656.660156 510.25 L 595.167969 404.554688 L 656.660156 298.863281 L 779.648438 298.863281 Z M 841.140625 404.554688 "/></clipPath><clipPath id="38f06ae5ec"><path d="M 595 509 L 841 509 L 841 723 L 595 723 Z M 595 509 "/></clipPath><clipPath id="fa3ee9681a"><path d="M 565 669.230469 L 688.558594 456.433594 L 871.367188 562.578125 L 747.804688 775.375 Z M 565 669.230469 "/></clipPath><clipPath id="1c5daabcee"><path d="M 779.917969 509.582031 L 840.441406 615.835938 L 778.683594 722.195312 L 656.402344 722.304688 L 595.878906 616.050781 L 657.636719 509.691406 Z M 779.917969 509.582031 "/></clipPath><clipPath id="962828ab82"><path d="M 595 509 L 841 509 L 841 723 L 595 723 Z M 595 509 "/></clipPath><clipPath id="378c0fbfb3"><path d="M 565 669.230469 L 688.511719 456.515625 L 871.347656 562.675781 L 747.835938 775.394531 Z M 565 669.230469 "/></clipPath><clipPath id="718eed3cdb"><path d="M 565 669.230469 L 688.511719 456.515625 L 871.316406 562.65625 L 747.800781 775.375 Z M 565 669.230469 "/></clipPath><clipPath id="8bf8e2b35e"><path d="M 779.914062 509.585938 L 840.4375 615.835938 L 778.679688 722.195312 L 656.398438 722.304688 L 595.875 616.050781 L 657.632812 509.691406 Z M 779.914062 509.585938 "/></clipPath><clipPath id="81f7bf11ac"><path d="M 778.277344 404.550781 L 1024.347656 404.550781 L 1024.347656 615.9375 L 778.277344 615.9375 Z M 778.277344 404.550781 "/></clipPath><clipPath id="2bc512567d"><path d="M 778.367188 510.242188 L 839.859375 404.550781 L 962.851562 404.550781 L 1024.347656 510.242188 L 962.851562 615.9375 L 839.859375 615.9375 Z M 778.367188 510.242188 "/></clipPath><clipPath id="369726ccbb"><path d="M 778.371094 404.554688 L 1024.347656 404.554688 L 1024.347656 615.9375 L 778.371094 615.9375 Z M 778.371094 404.554688 "/></clipPath><clipPath id="264328bf8a"><path d="M 778.371094 510.246094 L 839.863281 404.554688 L 962.851562 404.554688 L 1024.347656 510.246094 L 962.851562 615.9375 L 839.863281 615.9375 Z M 778.371094 510.246094 "/></clipPath><clipPath id="3ca3c888df"><path d="M 414.523438 193.167969 L 660.59375 193.167969 L 660.59375 404.558594 L 414.523438 404.558594 Z M 414.523438 193.167969 "/></clipPath><clipPath id="1cee07686b"><path d="M 660.503906 298.863281 L 599.011719 404.558594 L 476.019531 404.558594 L 414.523438 298.863281 L 476.019531 193.167969 L 599.011719 193.167969 Z M 660.503906 298.863281 "/></clipPath><clipPath id="793dc4292d"><path d="M 414.523438 193.167969 L 660.5 193.167969 L 660.5 404.554688 L 414.523438 404.554688 Z M 414.523438 193.167969 "/></clipPath><clipPath id="fc4323fab4"><path d="M 660.5 298.863281 L 599.007812 404.554688 L 476.019531 404.554688 L 414.523438 298.863281 L 476.019531 193.167969 L 599.007812 193.167969 Z M 660.5 298.863281 "/></clipPath><clipPath id="89ded5b723"><path d="M 595 86 L 841 86 L 841 300 L 595 300 Z M 595 86 "/></clipPath><clipPath id="1465341cd9"><path d="M 748.15625 33.800781 L 871.238281 246.878906 L 688.191406 352.613281 L 565.109375 139.535156 Z M 748.15625 33.800781 "/></clipPath><clipPath id="2306fd1435"><path d="M 779.667969 299.667969 L 657.386719 299.285156 L 595.871094 192.785156 L 656.632812 86.667969 L 778.917969 87.050781 L 840.433594 193.550781 Z M 779.667969 299.667969 "/></clipPath><clipPath id="22975b7bb5"><path d="M 595 86 L 841 86 L 841 300 L 595 300 Z M 595 86 "/></clipPath><clipPath id="940ba242cb"><path d="M 748.15625 33.800781 L 871.191406 246.796875 L 688.113281 352.546875 L 565.082031 139.550781 Z M 748.15625 33.800781 "/></clipPath><clipPath id="d08bffd5db"><path d="M 748.15625 33.800781 L 871.191406 246.796875 L 688.144531 352.527344 L 565.113281 139.53125 Z M 748.15625 33.800781 "/></clipPath><clipPath id="5fc50c1cd2"><path d="M 779.667969 299.664062 L 657.386719 299.28125 L 595.871094 192.78125 L 656.636719 86.667969 L 778.914062 87.050781 L 840.429688 193.550781 Z M 779.667969 299.664062 "/></clipPath></defs><g id="64f2e4fe92"><g clip-rule="nonzero" clip-path="url(#c40fd3c12c)"><g clip-rule="nonzero" clip-path="url(#28c9345d7b)"><path style=" stroke:none;fill-rule:nonzero;fill:#ffbd59;fill-opacity:1;" d="M 414.523438 404.558594 L 660.59375 404.558594 L 660.59375 615.949219 L 414.523438 615.949219 Z M 414.523438 404.558594 "/></g></g><g clip-rule="nonzero" clip-path="url(#1b0d4a5fcd)"><g clip-rule="nonzero" clip-path="url(#68ad5e9745)"><path style="fill:none;stroke-width:2;stroke-linecap:butt;stroke-linejoin:miter;stroke:#000000;stroke-opacity:1;stroke-miterlimit:4;" d="M 718.998379 308.942421 L 539.25338 617.895552 L 179.751963 617.895552 L -0.00445435 308.942421 L 179.751963 0.00070768 L 539.25338 0.00070768 Z M 718.998379 308.942421 " transform="matrix(0.342108,0,0,0.342108,414.524961,404.558352)"/></g></g><g clip-rule="nonzero" clip-path="url(#874bd607bd)"><g clip-rule="nonzero" clip-path="url(#dc8f840c25)"><path style=" stroke:none;fill-rule:nonzero;fill:#ffbd59;fill-opacity:1;" d="M 1024.347656 404.550781 L 778.277344 404.550781 L 778.277344 193.160156 L 1024.347656 193.160156 Z M 1024.347656 404.550781 "/></g></g><g clip-rule="nonzero" clip-path="url(#bceaf7fdb4)"><g clip-rule="nonzero" clip-path="url(#0577fdcae2)"><path style="fill:none;stroke-width:2;stroke-linecap:butt;stroke-linejoin:miter;stroke:#000000;stroke-opacity:1;stroke-miterlimit:4;" d="M 718.998959 308.94783 L 539.25396 617.889543 L 179.752543 617.889543 L -0.00387469 308.94783 L 179.752543 -0.00530126 L 539.25396 -0.00530126 Z M 718.998959 308.94783 " transform="matrix(-0.342108,0,0,-0.342108,1024.346331,404.548968)"/></g></g><g clip-rule="nonzero" clip-path="url(#173fe55a47)"><g clip-rule="nonzero" clip-path="url(#8ea1fde701)"><path style=" stroke:none;fill-rule:nonzero;fill:#ffbd59;fill-opacity:1;" d="M 595.167969 298.863281 L 841.238281 298.863281 L 841.238281 510.253906 L 595.167969 510.253906 Z M 595.167969 298.863281 "/></g></g><g clip-rule="nonzero" clip-path="url(#b8bf49b913)"><g clip-rule="nonzero" clip-path="url(#b885d9c6cb)"><path style="fill:none;stroke-width:2;stroke-linecap:butt;stroke-linejoin:miter;stroke:#000000;stroke-opacity:1;stroke-miterlimit:4;" d="M 718.99565 308.940669 L 539.25065 617.8938 L 179.749233 617.8938 L 0.00423396 308.940669 L 179.749233 -0.00104445 L 539.25065 -0.00104445 Z M 718.99565 308.940669 " transform="matrix(0.342108,0,0,0.342108,595.16652,298.863639)"/></g></g><g clip-rule="nonzero" clip-path="url(#38f06ae5ec)"><g clip-rule="nonzero" clip-path="url(#fa3ee9681a)"><g clip-rule="nonzero" clip-path="url(#1c5daabcee)"><path style=" stroke:none;fill-rule:nonzero;fill:#ffbd59;fill-opacity:1;" d="M 565 669.230469 L 688.558594 456.433594 L 871.367188 562.578125 L 747.804688 775.375 Z M 565 669.230469 "/></g></g></g><g clip-rule="nonzero" clip-path="url(#962828ab82)"><g clip-rule="nonzero" clip-path="url(#378c0fbfb3)"><g clip-rule="nonzero" clip-path="url(#718eed3cdb)"><g clip-rule="nonzero" clip-path="url(#8bf8e2b35e)"><path style="fill:none;stroke-width:2;stroke-linecap:butt;stroke-linejoin:miter;stroke:#000000;stroke-opacity:1;stroke-miterlimit:4;" d="M 719.001056 308.947561 L 539.25411 617.89073 L 179.74999 617.888839 L -0.00718418 308.943779 L 179.749636 -0.00512414 L 539.253756 -0.00323331 Z M 719.001056 308.947561 " transform="matrix(0.171785,-0.295851,0.295851,0.171785,564.998306,669.230794)"/></g></g></g></g><g clip-rule="nonzero" clip-path="url(#81f7bf11ac)"><g clip-rule="nonzero" clip-path="url(#2bc512567d)"><path style=" stroke:none;fill-rule:nonzero;fill:#ffbd59;fill-opacity:1;" d="M 1024.347656 615.9375 L 778.277344 615.9375 L 778.277344 404.550781 L 1024.347656 404.550781 Z M 1024.347656 615.9375 "/></g></g><g clip-rule="nonzero" clip-path="url(#369726ccbb)"><g clip-rule="nonzero" clip-path="url(#264328bf8a)"><path style="fill:none;stroke-width:2;stroke-linecap:butt;stroke-linejoin:miter;stroke:#000000;stroke-opacity:1;stroke-miterlimit:4;" d="M 718.998959 308.944101 L 539.25396 617.885814 L 179.752543 617.885814 L -0.00387469 308.944101 L 179.752543 0.00238817 L 539.25396 0.00238817 Z M 718.998959 308.944101 " transform="matrix(-0.342108,0,0,-0.342108,1024.346331,615.938317)"/></g></g><g clip-rule="nonzero" clip-path="url(#3ca3c888df)"><g clip-rule="nonzero" clip-path="url(#1cee07686b)"><path style=" stroke:none;fill-rule:nonzero;fill:#ffbd59;fill-opacity:1;" d="M 414.523438 193.167969 L 660.59375 193.167969 L 660.59375 404.558594 L 414.523438 404.558594 Z M 414.523438 193.167969 "/></g></g><g clip-rule="nonzero" clip-path="url(#793dc4292d)"><g clip-rule="nonzero" clip-path="url(#fc4323fab4)"><path style="fill:none;stroke-width:2;stroke-linecap:butt;stroke-linejoin:miter;stroke:#000000;stroke-opacity:1;stroke-miterlimit:4;" d="M 718.998379 308.950075 L 539.25338 617.891788 L 179.751963 617.891788 L -0.00445435 308.950075 L 179.751963 -0.00305615 L 539.25338 -0.00305615 Z M 718.998379 308.950075 " transform="matrix(0.342108,0,0,0.342108,414.524961,193.169014)"/></g></g><g clip-rule="nonzero" clip-path="url(#89ded5b723)"><g clip-rule="nonzero" clip-path="url(#1465341cd9)"><g clip-rule="nonzero" clip-path="url(#2306fd1435)"><path style=" stroke:none;fill-rule:nonzero;fill:#ffbd59;fill-opacity:1;" d="M 748.15625 33.800781 L 871.238281 246.878906 L 688.191406 352.613281 L 565.109375 139.535156 Z M 748.15625 33.800781 "/></g></g></g><g clip-rule="nonzero" clip-path="url(#22975b7bb5)"><g clip-rule="nonzero" clip-path="url(#940ba242cb)"><g clip-rule="nonzero" clip-path="url(#d08bffd5db)"><g clip-rule="nonzero" clip-path="url(#5fc50c1cd2)"><path style="fill:none;stroke-width:2;stroke-linecap:butt;stroke-linejoin:miter;stroke:#000000;stroke-opacity:1;stroke-miterlimit:4;" d="M 719.001397 308.945472 L 539.251729 617.896729 L 179.74671 617.893565 L 0.00124444 308.944855 L 179.745201 0.00348554 L 539.250221 0.00664965 Z M 719.001397 308.945472 " transform="matrix(0.171115,0.296239,-0.296239,0.171115,748.158065,33.802621)"/></g></g></g></g></g></svg>